<?xml version="1.0" standalone="no"?>
<!DOCTYPE svg PUBLIC "-//W3C//DTD SVG 20010904//EN"
 "http://www.w3.org/TR/2001/REC-SVG-20010904/DTD/svg10.dtd">
<svg version="1.0" xmlns="http://www.w3.org/2000/svg"
 width="512.000000pt" height="512.000000pt" viewBox="0 0 512.000000 512.000000"
 preserveAspectRatio="xMidYMid meet">
<metadata>
Created by potrace 1.14, written by Peter Selinger 2001-2017
</metadata>
<g transform="translate(0.000000,512.000000) scale(0.100000,-0.100000)"
fill="#000000" stroke="none">
<path d="M4250 4688 c0 -7 19 -24 42 -38 57 -35 176 -154 221 -221 182 -276
183 -636 2 -909 -199 -299 -576 -434 -922 -329 -211 64 -397 224 -493 424 -22
45 -40 87 -40 95 0 17 -89 7 -211 -26 -316 -84 -607 -318 -763 -613 -194 -370
-187 -827 20 -1182 42 -72 85 -131 91 -126 2 2 -14 42 -36 88 -60 127 -74 194
-75 344 -1 97 4 149 18 205 74 290 289 509 581 591 110 32 316 32 420 2 102
-30 137 -46 221 -104 235 -163 369 -428 358 -709 -4 -93 -6 -107 -29 -185 -25
-88 -120 -242 -211 -345 -222 -249 -488 -404 -807 -471 -106 -23 -355 -32
-462 -17 -177 24 -350 81 -500 164 -88 49 -117 66 -125 74 -3 3 -25 19 -50 35
-25 16 -95 79 -156 140 -366 365 -506 892 -367 1390 130 468 483 835 945 983
106 35 123 38 250 56 89 13 298 14 378 2 456 -69 835 -328 1056 -722 l56 -99
-6 106 c-33 572 -429 1084 -977 1263 -161 52 -243 66 -419 71 -472 13 -1009
-225 -1375 -607 -103 -107 -131 -139 -165 -188 -14 -19 -30 -40 -37 -48 -21
-23 -119 -185 -161 -267 -87 -172 -163 -394 -188 -554 -3 -18 -7 -42 -9 -52
-13 -68 -20 -178 -20 -329 0 -206 6 -265 49 -471 16 -73 71 -239 110 -331 158
-370 419 -682 759 -909 212 -140 469 -248 712 -298 98 -20 132 -26 238 -37 63
-7 331 -7 367 0 14 3 52 8 85 11 351 36 750 210 1054 460 66 54 209 197 254
255 28 36 54 67 58 70 19 15 154 233 201 326 74 144 150 355 174 477 2 12 8
45 13 72 24 123 34 228 34 383 l1 134 59 60 c126 129 232 300 289 468 27 79
31 93 53 230 13 82 14 297 1 350 -3 14 -8 36 -10 50 -35 221 -163 466 -331
636 -100 100 -225 197 -225 172z"/>
</g>
</svg>
